<svg xmlns="http://www.w3.org/2000/svg" width="1600" height="900" viewBox="0 0 1600 900">
  <defs>
    <marker id="a" markerWidth="8" markerHeight="8" refX="7" refY="4" orient="auto"><path d="M0,0 L8,4 L0,8 Z" fill="#785f76"/></marker>
    <style>.t{font:700 24px Arial;fill:#302233}.h{font:700 18px Arial;fill:#3d3040}.s{font:600 14px Arial;fill:#4c3d4e}.x{font:500 12px Arial;fill:#4c3d4e}.b{rx:14;stroke-width:1.8}.l{stroke:#785f76;stroke-width:2.2;fill:none;marker-end:url(#a)}</style>
  </defs>
  <rect width="1600" height="900" fill="#fffdfb"/><text x="48" y="42" class="t">Kavach Saathi — Corrected System Design &amp; Live Flow</text>

  <rect x="45" y="65" width="1010" height="185" rx="20" fill="#fbf1f6" stroke="#c69ab3" stroke-width="2"/>
  <text x="68" y="96" class="h">STAGE 0 · FIXING THE SOURCE — SELLER</text>
  <rect x="75" y="120" width="205" height="82" class="b" fill="#fffafd" stroke="#b98ba6"/><text x="177" y="147" text-anchor="middle" class="s">Seller Portal</text><text x="177" y="169" text-anchor="middle" class="x">phone product + label</text><text x="177" y="187" text-anchor="middle" class="x">photos uploaded</text>
  <rect x="355" y="108" width="235" height="52" class="b" fill="#5b164d" stroke="#5b164d"/><text x="472" y="130" text-anchor="middle" style="font:700 14px Arial;fill:white">A1 Catalogue Builder</text><text x="472" y="149" text-anchor="middle" style="font:500 12px Arial;fill:white">4 views · provider cascade</text>
  <rect x="355" y="174" width="235" height="52" class="b" fill="#5b164d" stroke="#5b164d"/><text x="472" y="196" text-anchor="middle" style="font:700 14px Arial;fill:white">A2 Spec Enforcer</text><text x="472" y="215" text-anchor="middle" style="font:500 12px Arial;fill:white">label-first verified specs</text>
  <rect x="675" y="120" width="205" height="82" class="b" fill="#eff9f2" stroke="#82b79a"/><text x="777" y="148" text-anchor="middle" class="s">Parallel Join Gate</text><text x="777" y="170" text-anchor="middle" class="x">pass → seller review</text><text x="777" y="188" text-anchor="middle" class="x">issue → pending/retry</text>
  <rect x="910" y="120" width="115" height="82" class="b" fill="#eff9f2" stroke="#82b79a"/><text x="967" y="153" text-anchor="middle" class="s">Publish</text><text x="967" y="176" text-anchor="middle" class="x">verified</text><text x="967" y="194" text-anchor="middle" class="x">listing</text>
  <path d="M280 160H335V134H355" class="l"/><path d="M280 160H335V200H355" class="l"/><path d="M590 134H640V160H675" class="l"/><path d="M590 200H640V160H675" class="l"/><path d="M880 160H910" class="l"/>

  <rect x="1080" y="65" width="475" height="185" rx="20" fill="#f0f8f2" stroke="#83b49a" stroke-width="2"/>
  <text x="1103" y="96" class="h">ASYNC CONTROL PLANE</text>
  <rect x="1115" y="119" width="130" height="58" class="b" fill="#fffaf0" stroke="#d4ae51"/><text x="1180" y="145" text-anchor="middle" class="s">FastAPI</text><text x="1180" y="164" text-anchor="middle" class="x">publish event</text>
  <rect x="1270" y="119" width="130" height="58" class="b" fill="#fffaf0" stroke="#d4ae51"/><text x="1335" y="145" text-anchor="middle" class="s">Redis Streams</text><text x="1335" y="164" text-anchor="middle" class="x">retry + DLQ</text>
  <rect x="1425" y="119" width="100" height="58" class="b" fill="#5b164d" stroke="#5b164d"/><text x="1475" y="145" text-anchor="middle" style="font:700 14px Arial;fill:white">Worker</text><text x="1475" y="164" text-anchor="middle" style="font:500 12px Arial;fill:white">consume</text>
  <path d="M1245 148H1270" class="l"/><path d="M1400 148H1425" class="l"/>
  <text x="1320" y="210" text-anchor="middle" class="x">order.placed → A7 · review.submitted → A4 · queued workflows → LangGraph</text>

  <rect x="45" y="275" width="1510" height="250" rx="20" fill="#fff8ec" stroke="#d6b35b" stroke-width="2"/>
  <text x="68" y="306" class="h">STAGE 1 · PRE-PURCHASE CONFIDENCE — BUYER</text>
  <rect x="75" y="343" width="180" height="72" class="b" fill="#fffdf5" stroke="#d4ae51"/><text x="165" y="370" text-anchor="middle" class="s">Browse Product</text><text x="165" y="392" text-anchor="middle" class="x">A1 images + A2 specs</text>
  <rect x="300" y="330" width="220" height="70" class="b" fill="#fffdf5" stroke="#d4ae51"/><text x="410" y="357" text-anchor="middle" class="s">A4-cleaned Reviews</text><text x="410" y="379" text-anchor="middle" class="x">filter ran after review submission</text>
  <rect x="300" y="420" width="220" height="70" class="b" fill="#fffdf5" stroke="#d4ae51"/><text x="410" y="447" text-anchor="middle" class="s">Ask Size Saathi</text><text x="410" y="469" text-anchor="middle" class="x">buyer chooses final size</text>
  <rect x="580" y="330" width="210" height="70" class="b" fill="#5b164d" stroke="#5b164d"/><text x="685" y="357" text-anchor="middle" style="font:700 14px Arial;fill:white">A4 Review Filter</text><text x="685" y="379" text-anchor="middle" style="font:500 12px Arial;fill:white">CLIP + BERT · hide media</text>
  <rect x="580" y="420" width="210" height="70" class="b" fill="#5b164d" stroke="#5b164d"/><text x="685" y="447" text-anchor="middle" style="font:700 14px Arial;fill:white">A3 Size Translator</text><text x="685" y="469" text-anchor="middle" style="font:500 12px Arial;fill:white">history + charts + fallback</text>
  <rect x="855" y="375" width="210" height="72" class="b" fill="#5b164d" stroke="#5b164d"/><text x="960" y="402" text-anchor="middle" style="font:700 14px Arial;fill:white">Intent Router → A5</text><text x="960" y="424" text-anchor="middle" style="font:500 12px Arial;fill:white">general → A5 · size → A3 → A5</text>
  <rect x="1130" y="343" width="190" height="72" class="b" fill="#eff9f2" stroke="#82b79a"/><text x="1225" y="370" text-anchor="middle" class="s">Grounded Answer</text><text x="1225" y="392" text-anchor="middle" class="x">text + Sarvam audio</text>
  <rect x="1360" y="343" width="160" height="72" class="b" fill="#eff9f2" stroke="#82b79a"/><text x="1440" y="370" text-anchor="middle" class="s">Cart</text><text x="1440" y="392" text-anchor="middle" class="x">buyer-selected size</text>
  <path d="M255 379H300" class="l"/><path d="M520 365H580" class="l"/><path d="M520 455H580" class="l"/><path d="M790 455H820V411H855" class="l"/><path d="M790 365H820V411H855" class="l"/><path d="M1065 411H1130" class="l"/><path d="M1320 379H1360" class="l"/>

  <rect x="45" y="550" width="1510" height="190" rx="20" fill="#f7eef4" stroke="#c394af" stroke-width="2"/>
  <text x="68" y="581" class="h">STAGE 2 · SAFE DELIVERY — ADDRESS, INTENT AND HANDOFF</text>
  <rect x="75" y="610" width="190" height="84" class="b" fill="#fffafd" stroke="#bd8eaa"/><text x="170" y="638" text-anchor="middle" class="s">Map Pin + Typed Address</text><text x="170" y="660" text-anchor="middle" class="x">Leaflet/OSM UI</text><text x="170" y="679" text-anchor="middle" class="x">phone + coordinates</text>
  <rect x="310" y="610" width="230" height="84" class="b" fill="#5b164d" stroke="#5b164d"/><text x="425" y="638" text-anchor="middle" style="font:700 14px Arial;fill:white">A6 Address Check</text><text x="425" y="660" text-anchor="middle" style="font:500 12px Arial;fill:white">Google geocode · IndicNLP</text><text x="425" y="679" text-anchor="middle" style="font:500 12px Arial;fill:white">DIGIPIN · Twilio Lookup</text>
  <rect x="585" y="610" width="170" height="84" class="b" fill="#eff9f2" stroke="#82b79a"/><text x="670" y="638" text-anchor="middle" class="s">Checkout Gate</text><text x="670" y="660" text-anchor="middle" class="x">valid + phone lookup</text><text x="670" y="679" text-anchor="middle" class="x">+ DIGIPIN required</text>
  <rect x="800" y="610" width="210" height="84" class="b" fill="#5b164d" stroke="#5b164d"/><text x="905" y="638" text-anchor="middle" style="font:700 14px Arial;fill:white">A7 Confirmation</text><text x="905" y="660" text-anchor="middle" style="font:500 12px Arial;fill:white">call → retry → WhatsApp</text><text x="905" y="679" text-anchor="middle" style="font:500 12px Arial;fill:white">email OTP = buyer alternative</text>
  <rect x="1055" y="610" width="180" height="84" class="b" fill="#eff9f2" stroke="#82b79a"/><text x="1145" y="638" text-anchor="middle" class="s">Dispatch</text><text x="1145" y="660" text-anchor="middle" class="x">confirmed orders</text><text x="1145" y="679" text-anchor="middle" class="x">enter delivery queue</text>
  <rect x="1280" y="610" width="240" height="84" class="b" fill="#eff9f2" stroke="#82b79a"/><text x="1400" y="638" text-anchor="middle" class="s">Delivery API + Portal</text><text x="1400" y="660" text-anchor="middle" class="x">DIGIPIN navigation · photos</text><text x="1400" y="679" text-anchor="middle" class="x">WhatsApp/email handoff OTP</text>
  <path d="M265 652H310" class="l"/><path d="M540 652H585" class="l"/><path d="M755 652H800" class="l"/><path d="M1010 652H1055" class="l"/><path d="M1235 652H1280" class="l"/>

  <rect x="45" y="765" width="1510" height="105" rx="20" fill="#edf8f0" stroke="#83b49a" stroke-width="2"/>
  <text x="68" y="796" class="h">STAGE 3 · POST-DELIVERY TRUST</text>
  <rect x="280" y="790" width="230" height="60" class="b" fill="#f6fff8" stroke="#82b79a"/><text x="395" y="814" text-anchor="middle" class="s">Buyer Starts Return</text><text x="395" y="835" text-anchor="middle" class="x">uploads short product video</text>
  <rect x="590" y="790" width="235" height="60" class="b" fill="#5b164d" stroke="#5b164d"/><text x="707" y="814" text-anchor="middle" style="font:700 14px Arial;fill:white">A8 Return Verifier</text><text x="707" y="835" text-anchor="middle" style="font:500 12px Arial;fill:white">5 frames · CLIP/ResNet · label</text>
  <rect x="905" y="790" width="300" height="60" class="b" fill="#f6fff8" stroke="#82b79a"/><text x="1055" y="814" text-anchor="middle" class="s">Approve · More Evidence · Manual</text><text x="1055" y="835" text-anchor="middle" class="x">never automatic rejection</text>
  <rect x="1285" y="790" width="200" height="60" class="b" fill="#f6fff8" stroke="#82b79a"/><text x="1385" y="814" text-anchor="middle" class="s">Persist Outcome</text><text x="1385" y="835" text-anchor="middle" class="x">recompute trust signals</text>
  <path d="M510 820H590" class="l"/><path d="M825 820H905" class="l"/><path d="M1205 820H1285" class="l"/>
</svg>
