<svg xmlns="http://www.w3.org/2000/svg" width="1600" height="900" viewBox="0 0 1600 900">
  <defs>
    <marker id="arrow" markerWidth="8" markerHeight="8" refX="7" refY="4" orient="auto"><path d="M0,0 L8,4 L0,8 Z" fill="#80647d"/></marker>
    <style>
      .title{font:700 24px Arial;fill:#2f2031}.band{rx:18;stroke-width:2}.label{font:700 18px Arial;fill:#392b3b}.small{font:600 15px Arial;fill:#4b3c4d}.tiny{font:500 13px Arial;fill:#4b3c4d}.box{rx:14;stroke-width:1.8}.line{stroke:#80647d;stroke-width:2.2;fill:none;marker-end:url(#arrow)}
    </style>
  </defs>
  <rect width="1600" height="900" fill="#fffdfb"/>
  <text x="50" y="42" class="title">Kavach Saathi — Corrected Architecture</text>

  <rect x="45" y="62" width="1510" height="92" class="band" fill="#edf5ff" stroke="#a9c4df"/>
  <text x="68" y="91" class="label">CLIENTS</text>
  <g fill="#f7fbff" stroke="#8fb1d1">
    <rect x="285" y="82" width="220" height="48" class="box"/><rect x="535" y="82" width="220" height="48" class="box"/>
    <rect x="785" y="82" width="220" height="48" class="box"/><rect x="1035" y="82" width="220" height="48" class="box"/>
  </g>
  <text x="395" y="112" text-anchor="middle" class="small">Buyer Storefront</text><text x="645" y="112" text-anchor="middle" class="small">Seller Portal</text>
  <text x="895" y="112" text-anchor="middle" class="small">Delivery Portal</text><text x="1145" y="112" text-anchor="middle" class="small">Admin Console</text>

  <path d="M770 154V174" class="line"/>
  <rect x="45" y="174" width="1510" height="98" class="band" fill="#f8edf4" stroke="#c89ab6"/>
  <text x="68" y="205" class="label">EDGE + FRONTEND</text>
  <rect x="300" y="194" width="350" height="54" class="box" fill="#fff8fc" stroke="#bb87a7"/>
  <rect x="720" y="194" width="560" height="54" class="box" fill="#fff8fc" stroke="#bb87a7"/>
  <text x="475" y="216" text-anchor="middle" class="small">Caddy or Vercel Edge</text><text x="475" y="237" text-anchor="middle" class="tiny">TLS · host routing · CDN option</text>
  <text x="1000" y="216" text-anchor="middle" class="small">Next.js 16 + React 19</text><text x="1000" y="237" text-anchor="middle" class="tiny">/agent-api proxy · JWT session · signed uploads · polling/SSE</text>
  <path d="M650 221H720" class="line"/>

  <path d="M1000 272V292" class="line"/>
  <rect x="45" y="292" width="1510" height="128" class="band" fill="#f5e6ee" stroke="#bd8eaa"/>
  <text x="68" y="323" class="label">STATELESS FASTAPI API</text>
  <rect x="245" y="316" width="1110" height="42" class="box" fill="#5b164d" stroke="#5b164d"/>
  <text x="800" y="343" text-anchor="middle" style="font:700 17px Arial;fill:white">JWT ROLE GUARDS · RATE LIMITS · HEALTH · PROMETHEUS METRICS</text>
  <g fill="#fff8fc" stroke="#bd8eaa">
    <rect x="245" y="370" width="190" height="34" class="box"/><rect x="455" y="370" width="190" height="34" class="box"/><rect x="665" y="370" width="190" height="34" class="box"/>
    <rect x="875" y="370" width="190" height="34" class="box"/><rect x="1085" y="370" width="270" height="34" class="box"/>
  </g>
  <text x="340" y="392" text-anchor="middle" class="tiny">Auth + Profiles</text><text x="550" y="392" text-anchor="middle" class="tiny">Commerce + Payments</text>
  <text x="760" y="392" text-anchor="middle" class="tiny">Seller + Specs</text><text x="970" y="392" text-anchor="middle" class="tiny">Delivery API</text><text x="1220" y="392" text-anchor="middle" class="tiny">Admin + Agent Workflow APIs</text>

  <path d="M600 420V453" class="line"/><path d="M1000 420V453" class="line"/>
  <rect x="45" y="453" width="1510" height="132" class="band" fill="#fff5d9" stroke="#d9b65e"/>
  <text x="68" y="484" class="label">ORCHESTRATION</text>
  <rect x="260" y="480" width="420" height="76" class="box" fill="#fffaf0" stroke="#d4ae51"/>
  <text x="470" y="506" text-anchor="middle" class="small">LangGraph Workflows</text><text x="470" y="529" text-anchor="middle" class="tiny">A1+A2 parallel join · voice intent route</text><text x="470" y="548" text-anchor="middle" class="tiny">single workflows: size · review · address · return</text>
  <rect x="735" y="480" width="275" height="76" class="box" fill="#fffaf0" stroke="#d4ae51"/>
  <text x="872" y="506" text-anchor="middle" class="small">Redis Streams</text><text x="872" y="529" text-anchor="middle" class="tiny">workflow queue · order.placed</text><text x="872" y="548" text-anchor="middle" class="tiny">review.submitted · retries · DLQ</text>
  <rect x="1060" y="480" width="275" height="76" class="box" fill="#5b164d" stroke="#5b164d"/>
  <text x="1197" y="506" text-anchor="middle" style="font:700 17px Arial;fill:white">Dedicated Event Worker</text><text x="1197" y="529" text-anchor="middle" style="font:500 13px Arial;fill:white">3 consumer groups · heartbeat</text><text x="1197" y="548" text-anchor="middle" style="font:500 13px Arial;fill:white">invokes workflow/agent</text>
  <path d="M1010 518H1060" class="line"/><path d="M1197 556V574H680" class="line"/>

  <path d="M800 585V604" class="line"/>
  <rect x="45" y="604" width="1510" height="106" class="band" fill="#f7e9f0" stroke="#c790ac"/>
  <text x="68" y="635" class="label">8 EVIDENCE-BASED AGENTS</text>
  <g fill="#fff8fc" stroke="#bd8eaa">
    <rect x="215" y="646" width="150" height="44" class="box"/><rect x="380" y="646" width="150" height="44" class="box"/><rect x="545" y="646" width="150" height="44" class="box"/><rect x="710" y="646" width="150" height="44" class="box"/>
    <rect x="875" y="646" width="150" height="44" class="box"/><rect x="1040" y="646" width="150" height="44" class="box"/><rect x="1205" y="646" width="150" height="44" class="box"/><rect x="1370" y="646" width="150" height="44" class="box"/>
  </g>
  <text x="290" y="674" text-anchor="middle" class="tiny">A1 Catalogue</text><text x="455" y="674" text-anchor="middle" class="tiny">A2 Specs</text><text x="620" y="674" text-anchor="middle" class="tiny">A3 Size</text><text x="785" y="674" text-anchor="middle" class="tiny">A4 Reviews</text>
  <text x="950" y="674" text-anchor="middle" class="tiny">A5 Voice Q&amp;A</text><text x="1115" y="674" text-anchor="middle" class="tiny">A6 Address</text><text x="1280" y="674" text-anchor="middle" class="tiny">A7 Confirm</text><text x="1445" y="674" text-anchor="middle" class="tiny">A8 Returns</text>

  <path d="M800 710V730" class="line"/>
  <rect x="45" y="730" width="1510" height="136" class="band" fill="#eaf7ee" stroke="#82b79a"/>
  <text x="68" y="761" class="label">PROVIDERS + DATA</text>
  <rect x="210" y="755" width="390" height="86" class="box" fill="#f4fff7" stroke="#79ae8f"/>
  <text x="405" y="781" text-anchor="middle" class="small">Self-hosted models</text><text x="405" y="805" text-anchor="middle" class="tiny">SAM · CLIP · ResNet · OpenCV · BERT</text><text x="405" y="825" text-anchor="middle" class="tiny">Stable Diffusion + ControlNet · MiniLM</text>
  <rect x="625" y="755" width="440" height="86" class="box" fill="#f4fff7" stroke="#79ae8f"/>
  <text x="845" y="781" text-anchor="middle" class="small">External APIs</text><text x="845" y="805" text-anchor="middle" class="tiny">FASHN · Gemini · Pinecone · Sarvam</text><text x="845" y="825" text-anchor="middle" class="tiny">Google Maps · Twilio · SMTP · Razorpay</text>
  <rect x="1090" y="755" width="425" height="86" class="box" fill="#f4fff7" stroke="#79ae8f"/>
  <text x="1302" y="781" text-anchor="middle" class="small">Durable infrastructure</text><text x="1302" y="805" text-anchor="middle" class="tiny">PostgreSQL source of truth · agent_logs</text><text x="1302" y="825" text-anchor="middle" class="tiny">Redis cache/state · local/S3/R2 media</text>
</svg>
